# xmcd
#
# Track frame offsets:
#	150
#	11532
#	22239
#	37347
#	48368
#	60021
#	72751
#	81522
#	92879
#	103073
#	113867
#
# Disc length: 1662 seconds
#
# Revision: 0
# Processed by: cddbd v1.5.1PL2 Copyright (c) Steve Scherf et al.
# Submitted via: EasyCDDAExtractor 9.0.0.1
#
DISCID=91067c0b
DTITLE=Danny Davis - Movin' On
DYEAR=2003
DGENRE=Acapella
TTITLE0=I'm Movin' On
TTITLE1=The Ways To Love A Man
TTITLE2=Ruby, Don't Take Your Love To Town
TTITLE3=Release Me
TTITLE4=Wolverton Mountain
TTITLE5=Yesterday, When I Was Young
TTITLE6=Wabash Cannonball 
TTITLE7=All I Have To Offer You (Is Me)
TTITLE8=Hey Good Lookin'
TTITLE9=Sweet Dreams
TTITLE10=Ring Of Fire
EXTD=
EXTT0=
EXTT1=
EXTT2=
EXTT3=
EXTT4=
EXTT5=
EXTT6=
EXTT7=
EXTT8=
EXTT9=
EXTT10=
PLAYORDER=
